<svg width="175" height="50" viewBox="0 0 175 50" fill="none" xmlns="http://www.w3.org/2000/svg">
<path d="M64.54 17.2C66.12 18.06 67.94 18.56 70.02 18.92L68.78 21.66C64.94 20.76 61 18.3 59.48 13.48H57.38V18.42C58.68 18.2 59.96 17.94 61.18 17.64L61.54 18.68C59.24 19.92 55.56 21.16 52.88 21.7L52.16 19.06C53.02 18.98 53.9 18.9 54.8 18.78V13.48H52.08V12.2H55.22V3.94H67.64V5.18H57.78V6.68H66.54V7.9H57.78V9.42H66.54V10.64H57.78V12.2H69.64V13.48H65.92L67.9 14.82C66.76 15.88 65.62 16.66 64.54 17.2ZM60.72 13.48C61.46 14.72 62.32 15.68 63.32 16.42C64.04 15.72 64.78 14.74 65.56 13.48H60.72ZM82.38 3.98H88.94V19.28C88.94 21.68 86.92 22.14 83.86 20.44L84.14 19.44C86.28 19.86 86.58 19.66 86.58 18.66V14.4H84.54C84.22 17.28 83.34 19.78 80.96 21.76L80.24 21.08C80.78 20.34 81.2 19.6 81.5 18.8L79.88 20.26C79.12 19 78.44 18.08 77.64 17.08L78.38 16.32H74.92L77.08 17.36C75.88 19.22 74.24 20.82 72.64 21.84L71.9 21.06C72.96 19.82 74.08 17.98 74.72 16.32H72.22V15.1H73.84V7.1H72.42V5.88H73.84V3.22H76.22V5.88H78.26V3.22H80.62V5.88H81.84V7.1H80.62V15.1H81.88V16.32H78.44C79.58 16.96 80.58 17.72 81.54 18.7C82.34 16.52 82.38 13.88 82.38 9.72V3.98ZM86.58 5.18H84.72V8.52H86.58V5.18ZM78.26 8.88V7.1H76.22V8.88H78.26ZM84.64 13.2H86.58V9.7H84.72C84.72 10.92 84.7 12.08 84.64 13.2ZM78.26 11.94V10.02H76.22V11.94H78.26ZM78.26 15.1V13.08H76.22V15.1H78.26ZM99.46 10.02C101.38 8.86 102.04 7.38 102.28 5.04H100V3.88H109.28C109.16 6.1 109 7.58 108.8 8.64C108.46 10.58 106.24 10.94 103.94 9.28L104.28 8.34C106.2 8.82 106.4 8.66 106.54 7.88C106.68 7.22 106.76 6.34 106.82 5.04H104.66C104.24 7.96 102.9 10.06 99.86 10.92L99.46 10.02ZM99.18 16.18H96.92V15.06H95.34V16.46H93.06V4.1H99.18V16.18ZM95.34 5.28V9.02H96.92V5.28H95.34ZM95.34 13.88H96.92V10.16H95.34V13.88ZM100.22 15.9V10.86H108.94V15.9H100.22ZM102.62 12.04V14.74H106.5V12.04H102.62ZM106.82 16.68C108.14 17.72 109.6 19.3 110.34 20.44L107.98 21.82C107.52 20.54 106.74 18.66 106 17.26L106.82 16.68ZM91.86 20.3C93.08 19.36 94.26 18.12 94.98 16.76L95.98 17.14C95.66 19.04 94.8 20.96 93.92 22.02L91.86 20.3ZM102.56 16.78C103.54 17.74 104.84 19.5 105.42 20.66L103 21.78C102.68 20.4 102.18 18.62 101.68 17.28L102.56 16.78ZM97.6 17.16L98.58 16.82C99.38 17.92 100.36 19.82 100.78 21L98.24 21.74C98.1 20.38 97.84 18.48 97.6 17.16ZM121.64 20.14C122.46 19.42 123.18 18.56 123.86 17.54L125.72 18.76C124.32 20.18 122.44 21.4 120.8 21.98L120.3 21.14C120.7 20.9 121.06 20.62 121.42 20.32H116.94V21.4H115.04V15.18C114.94 15.32 114.82 15.44 114.72 15.56C114.36 17.94 113.72 20.18 112.68 21.66L111.8 21.18C112.68 18.6 112.88 15.7 112.88 12.02V4.16L114.66 4.52C116.78 4.12 118.26 3.66 119.84 2.86L121.4 4.58C119.74 5.06 117.44 5.4 115.06 5.52V6.08H121.26V9.56H118.64C119.26 10.12 119.8 10.78 120.28 11.5L119.52 11.94H121.62V13.08H119.82V14.3H121.26V15.38H119.82V16.64H121.28V17.74H119.82V19.2H121.64V20.14ZM124.46 5.24H121.4V4.04H129.72V5.24H126.86C126.4 5.96 125.94 6.62 125.5 7.14H129.06V17.5H122.1V7.14H124.22C124.32 6.52 124.4 5.84 124.46 5.24ZM119.18 7.22H115.06V8.42H119.18V7.22ZM126.8 10.16V8.28H124.3V10.16H126.8ZM115.84 9.6L117.7 10.16C117.52 10.72 117.28 11.32 117 11.94H118.68C118.4 11.24 118.12 10.6 117.8 10L118.44 9.56H115.06V10.78C115.06 11.46 115.04 12.16 115 12.88C115.36 11.86 115.64 10.7 115.84 9.6ZM126.8 13.22V11.28H124.3V13.22H126.8ZM118.06 14.3V13.08H116.94V14.3H118.06ZM126.8 16.36V14.36H124.3V16.36H126.8ZM118.06 16.64V15.38H116.94V16.64H118.06ZM126.56 17.52C128.1 18.28 129.22 19.06 130.46 20.14L128.88 21.8C128.08 20.72 127.02 19.42 125.94 18.36L126.56 17.52ZM118.06 19.2V17.74H116.94V19.2H118.06ZM133.18 10.48V3.84H139.44V19.38C139.44 21.94 137.2 22.3 134.66 20.72L134.92 19.7C136.88 20.1 137.18 19.88 137.18 18.86V14.38H135.46C135.24 17.52 134.62 19.82 132.8 21.82L131.92 21.16C133.12 18.76 133.18 16.2 133.18 10.48ZM147.46 17.46C148.28 18.16 149.22 18.74 150.32 19.3L148.84 21.68C147.8 21.02 146.9 20.22 146.14 19.28C145.32 20.22 144.34 21 143.24 21.58L142.82 20.92V21.64H140.46V3.9H148.92C148.94 6 148.88 6.94 148.76 7.96C148.5 10.34 146.16 10.72 143.7 8.98L143.98 8.02C146 8.5 146.28 8.34 146.36 7.56C146.42 6.86 146.44 6.32 146.44 5.1H142.82V11.1H146.78L147.28 10.72L149.44 11.4C149.18 13.66 148.5 15.72 147.46 17.46ZM137.18 5.04H135.56V8.44H137.18V5.04ZM135.52 13.22H137.18V9.6H135.56V9.64C135.56 10.94 135.56 12.12 135.52 13.22ZM142.82 20.54C143.78 19.74 144.54 18.82 145.14 17.82C144.24 16.26 143.62 14.42 143.3 12.28H142.82V20.54ZM146.96 12.28H144.34C144.74 13.8 145.3 15 146.06 15.98C146.54 14.78 146.82 13.54 146.96 12.28ZM165.06 12.34C165.04 12.94 165 13.5 164.92 14.02H169.24C169.12 16.44 168.96 18.4 168.72 19.66C168.4 21.5 166.38 22.64 163.36 20.42L163.72 19.5C165.92 20 166.3 19.9 166.48 18.8C166.62 17.9 166.74 16.64 166.8 15.2H164.72C163.88 18.96 161.62 20.88 158.46 21.78L158.08 20.86C160.66 19.48 161.88 17.92 162.4 15.2H159.34V14.02H162.56C162.62 13.54 162.66 13.02 162.68 12.48C161.82 12.86 160.88 13.16 159.92 13.38L159.68 12.6C159.32 13.02 158.94 13.38 158.6 13.66L157.94 13.18V19.44C157.94 21.38 156.02 22.54 152.94 20.74L153.2 19.8C155.22 20.16 155.7 20 155.7 19.04V14.7C154.98 16.18 153.94 17.7 152.52 18.9L151.84 18.12C153.42 16.2 154.52 13.82 155.28 10.78H152.2V9.62H156.28C155.52 8.48 154.66 7.38 153.9 6.52L154.48 5.84C155.18 6.22 155.86 6.66 156.52 7.18C157.08 6.52 157.54 5.86 157.92 5.12H152.62V3.96H157.88L158.58 3.54L160.8 4.94C159.92 6.04 158.62 7.14 157.42 7.92C157.74 8.22 158.04 8.52 158.34 8.86L157.4 9.62H158.7L159.28 9.22L161.3 10.34C160.92 11.04 160.4 11.76 159.88 12.38C161.52 11.72 162.8 10.92 163.78 9.92C163.12 9.2 162.56 8.4 162.16 7.62C161.64 8.26 161.08 8.82 160.46 9.26L159.76 8.62C161.12 6.76 161.7 5.06 162.2 3L164.46 3.6C164.28 4.08 164.06 4.6 163.8 5.12H169.7V6.32H168.26C167.86 7.66 167.22 8.8 166.38 9.78C167.44 10.3 168.68 10.72 170.16 11.04L169.2 13.34C167.68 12.94 166.22 12.12 165 11.08C164.38 11.58 163.7 11.98 162.96 12.34H165.06ZM162.88 6.68C163.42 7.48 164.04 8.16 164.76 8.74C165.24 8 165.6 7.2 165.84 6.32H163.1C163.04 6.44 162.96 6.56 162.88 6.68ZM157.94 12.86C158.26 12.22 158.58 11.46 158.76 10.78H157.94V12.86Z" fill="#595757"/>
<path d="M69.56 41.96C70.58 45.78 69.52 47.52 66.84 46.18C66.08 45.82 65.44 45.24 64.88 44.46C63.38 45.48 61.6 46.22 59.54 46.6L59.24 45.7C61 45.12 62.62 44.22 64.04 42.96C63.58 41.94 63.24 40.76 62.96 39.44H61.16C61.12 39.76 61.08 40.1 61.02 40.42C62.04 41.02 62.88 41.68 63.46 42.28L62.04 43.7C61.7 43.14 61.2 42.4 60.72 41.7C60.16 43.66 59.14 45.46 57.36 46.64L56.74 45.92C58.18 44.34 58.88 42.42 59.12 39.44H57.3V38.26H59.2C59.2 37.82 59.22 37.34 59.22 36.86H61.28C61.28 37.32 61.28 37.78 61.26 38.26H62.76C62.66 37.7 62.58 37.12 62.52 36.52L61.42 36.84C61.36 36.48 61.3 36.1 61.22 35.74C60.06 36.32 59.06 36.58 58.24 36.78C58.34 36.92 58.44 37.08 58.52 37.22L57.06 38.06C56.9 37.6 56.68 37.02 56.46 36.48V46.6H54.22V39.06C53.88 40.18 53.38 41.32 52.7 42.44L51.88 41.88C52.74 39.94 53.46 36.98 53.92 33.6H52.4V32.42H54.22V28.24H56.46V32.42H57.68V33.6H56.46V34.56C57.14 35.24 57.72 35.96 58.16 36.64L57.74 35.1C58.08 35.1 58.42 35.1 58.74 35.08C59.1 34.48 59.42 33.9 59.7 33.34C59.16 33.56 58.7 33.7 58.18 33.82L57.8 32.1C58.04 32.12 58.24 32.12 58.46 32.12C58.78 30.94 59.1 29.42 59.26 28.34L61.1 28.84C60.64 29.96 60.08 31.14 59.46 32.12C59.74 32.1 60 32.1 60.26 32.08C60.48 31.54 60.68 31 60.86 30.46L62.24 31.04V30.64V28.16H64.36V30.72C64.36 31.16 64.36 31.58 64.38 32C64.6 32 64.82 32.02 65.04 32.02C65.38 30.86 65.68 29.4 65.82 28.32L67.68 28.84C67.2 29.98 66.66 31.04 66.06 32L66.98 31.94C67.18 31.44 67.4 30.92 67.6 30.38L69.34 31.14C68.58 32.5 67.58 33.9 66.52 35.02C66.98 34.98 67.42 34.94 67.88 34.88C67.78 34.56 67.7 34.24 67.62 33.94L68.34 33.66C68.96 34.48 69.52 35.62 69.82 36.44L68.28 36.92C68.22 36.54 68.16 36.14 68.06 35.74C67.62 35.94 67.18 36.12 66.76 36.28C67.36 36.78 67.88 37.36 68.2 37.8L67.5 38.26H69.78V39.44H65.1C65.24 40.1 65.42 40.72 65.64 41.28C66.1 40.72 66.52 40.1 66.92 39.44L68.7 40.58C68.1 41.5 67.4 42.34 66.58 43.1C66.86 43.48 67.16 43.78 67.5 44.02C68.32 44.62 68.6 44.38 68.62 41.96H69.56ZM61.58 33.76C61.9 34.3 62.2 34.86 62.42 35.4C62.32 34.2 62.26 32.94 62.24 31.66C61.58 32.8 60.66 34.04 59.84 35.02L61.04 34.9C60.98 34.6 60.92 34.3 60.84 34.04L61.58 33.76ZM64.38 32.04C64.4 34.32 64.56 36.44 64.86 38.26H66.66C66.44 37.74 66.14 37.1 65.84 36.58C65.56 36.68 65.3 36.74 65.06 36.8L64.64 35.08H65.4C65.76 34.44 66.08 33.82 66.38 33.22C65.86 33.46 65.36 33.62 64.78 33.78L64.38 32.04ZM88.52 41.6H89.74V42.72H88.52V44.64C88.52 46.74 86.68 47.28 83.82 45.86L84.02 44.96C85.96 45.24 86.24 45.1 86.24 44.12V42.72H81.14V46.64H78.86V42.72H77.42V41.6H78.86V37.7L77.5 38.58C77.28 37.96 77.04 37.34 76.8 36.74V46.64H74.48V38.58C73.98 39.88 73.26 41.26 72.42 42.28L71.68 41.74C72.76 39.74 73.7 36.56 74.12 33.42H72.2V32.22H74.48V28.22H76.8V32.22H78.42V33.42H76.8V34.6C77.52 35.34 78.28 36.26 78.86 37.12V36.84H82.5V35.8H78.12V34.68H80.54V33.54H78.94V32.44H80.54V31.34H78.36V30.22H80.54V28.14H82.76V30.22H84.68V28.14H86.9V30.22H89.2V31.34H86.9V32.44H88.7V33.54H86.9V34.68H89.5V35.8H84.86V36.84H88.52V41.6ZM82.76 31.34V32.44H84.68V31.34H82.76ZM82.76 33.54V34.68H84.68V33.54H82.76ZM82.7 39.22V37.96H81.14V39.22H82.7ZM86.24 39.22V37.96H84.66V39.22H86.24ZM82.7 41.6V40.28H81.14V41.6H82.7ZM86.24 41.6V40.28H84.66V41.6H86.24ZM99.52 31.6V32.84H92.22V31.6H95.42C94.76 30.5 94.04 29.38 93.5 28.68L94.18 27.98C95.28 28.6 96.62 29.66 97.56 30.68L96.42 31.6H99.52ZM105.78 38.28H109.84V39.52H105.78V46.66H103.2V39.52H99.18V38.28H103.2V30.44H99.64V29.2H109.46V30.44H105.78V38.28ZM105.96 37C106.5 35.36 107.02 33.38 107.3 31.48L109.54 32.2C108.82 34.22 107.8 36.14 106.82 37.44L105.96 37ZM100.72 31.6C101.74 33.12 102.76 35.28 103.16 36.78L101 37.48C100.7 35.68 100.24 33.6 99.8 31.98L100.72 31.6ZM98.9 34.38V35.58H92.86V34.38H98.9ZM92.86 38.28V37.06H98.9V38.28H92.86ZM92.8 46.54V39.86H98.92V46.36H96.76V45.26H94.96V46.54H92.8ZM94.96 41.04V44.08H96.76V41.04H94.96ZM118.66 42.56L118.98 43.46C117.46 44.54 114.26 45.78 112.46 46.2L111.88 43.92C112.62 43.86 113.46 43.74 114.34 43.6V42.52L112.74 42.8C112.7 41.58 112.56 40.04 112.36 38.64L113.16 38.44C113.76 39.54 114.14 40.86 114.34 42V37.8H112.26V36.64H114.34V34.68H113.06V34.66C112.84 34.84 112.64 35.02 112.42 35.18L111.82 34.44C112.96 33 114.08 30.9 114.88 27.92L117.14 28.62C117.04 28.9 116.92 29.18 116.78 29.46C117.48 29.96 118.22 30.62 118.82 31.3V28.84H125.08V30.02H123.28V31.84H124.48V35.1C125.14 32.92 125.44 30.08 125.52 28.06L127.74 28.38C127.62 29.16 127.44 30.18 127.16 31.24H129.92V32.46H126.82C126.36 33.9 125.76 35.36 124.98 36.44L124.16 36.02L124.34 35.54H123.3V37.4H125.48V38.58H118.82V32.18L117.76 33.08C117.24 32.16 116.72 31.26 116.26 30.54C115.66 31.62 114.98 32.62 114.2 33.5H118.16V34.68H116.6V36.64H118.56V37.8H116.6V42.24C116.88 41.02 117.1 39.64 117.22 38.38L118.78 38.76C118.56 39.9 118 41.48 117.32 42.6L116.6 42.32V43.12C117.34 42.94 118.04 42.76 118.66 42.56ZM120.7 30.02V31.84H121.6V30.02H120.7ZM120.7 32.92V34.42H122.78V32.92H120.7ZM127.74 38.16C127.44 36.82 126.9 35.06 126.44 33.76L127.28 33.32C128.28 34.48 129.24 36.08 129.76 37.4L127.74 38.16ZM120.7 35.54V37.4H121.6V35.54H120.7ZM128.84 44.82H130V46.04H117.7V44.82H119.18V39.44H128.84V44.82ZM122.12 44.82V40.64H121.3V44.82H122.12ZM124.42 44.82V40.64H123.56V44.82H124.42ZM126.7 44.82V40.64H125.88V44.82H126.7ZM146.7 38.6C145.56 38.88 144.18 39.14 142.7 39.36V44.4C142.7 46.7 140.44 47.44 137.04 45.68L137.32 44.7C139.78 45.04 140.1 44.84 140.1 43.72V39.7C137.74 39.96 135.44 40.14 133.82 40.2L133.26 37.82C134.44 37.9 135.64 37.94 136.84 37.94C138.34 37.18 139.82 36.26 141.2 35.16C138.96 35.66 136.82 35.9 135.14 36.02L134.58 33.68C135.42 33.74 136.26 33.78 137.1 33.8C137.88 32.96 138.56 32.14 139.24 31.16C137.2 31.3 135.28 31.36 133.74 31.34L133.58 30.36C138.26 29.98 142.8 29.3 146.42 27.94L148.64 29.88C146.84 30.3 144.8 30.6 142.76 30.84C141.66 31.84 140.14 32.98 138.88 33.82C140.22 33.82 141.56 33.78 142.9 33.68C143.66 32.98 144.38 32.2 145.06 31.38L147.44 32.86C145.08 35.06 142.38 36.72 139.66 37.92C141.88 37.86 144.04 37.72 146.04 37.56C145.66 36.96 145.26 36.42 144.9 35.94L145.66 35.3C147.04 36.16 148.92 37.82 149.88 39.18L147.86 40.66C147.5 39.96 147.1 39.26 146.7 38.6ZM139.46 41.46C137.96 43.14 135.2 45.16 132.44 46.1L131.98 45.16C133.96 43.88 135.76 42.22 137.24 40.04L139.46 41.46ZM143.7 40.1C145.84 40.9 148.64 42.58 150.06 43.82L148.28 45.9C147.04 44.52 144.8 42.38 143.14 40.98L143.7 40.1ZM169.5 40.6C170.7 45.7 169.86 46.34 167.54 46.32C164.8 46.3 164.4 45.98 164.4 43.82V37.36C164.04 37.44 163.66 37.52 163.3 37.58V38.38C163.3 42.12 162.56 45.34 157.88 46.92L157.44 46.02C160.74 44 160.98 41.98 160.98 38.3V37.96C160.46 38.04 159.98 38.1 159.56 38.14L159.06 35.82C159.6 35.84 160.16 35.84 160.74 35.84C161.24 34.72 161.76 33.32 162.08 32.08H159.06V30.88H164.06C163.26 30.12 162.32 29.34 161.54 28.76L162 27.84C163.34 28.18 165 28.9 166.26 29.72L165.36 30.88H169.64V32.08H164.9C164.12 33.4 163.14 34.8 162.24 35.82C163.74 35.78 165.26 35.68 166.7 35.54C166.38 34.84 166.04 34.16 165.74 33.6L166.5 33.06C167.84 34.26 169.34 36.24 170.04 37.52L168 38.7C167.8 38.12 167.5 37.38 167.18 36.62C167.04 36.68 166.88 36.72 166.72 36.76V43.16C166.72 43.98 166.82 44.14 167.58 44.12C168.42 44.12 168.48 43.88 168.48 40.6H169.5ZM152.04 38.3L153.54 38.24C154.4 37.12 155.12 36.02 155.82 34.74C154.72 35.16 153.6 35.46 152.66 35.6L152.22 33.44C152.6 33.46 152.98 33.46 153.36 33.46C154.04 31.78 154.6 29.8 154.96 27.92L157.44 28.58C156.72 30.2 155.66 32.1 154.68 33.46C155.32 33.46 155.92 33.44 156.52 33.4C156.8 32.8 157.1 32.14 157.4 31.44L159.58 32.58C158.18 34.86 156.66 36.74 155.2 38.1C156 38.04 156.82 37.94 157.58 37.8L157.12 36.36L157.98 35.96C158.76 36.88 159.48 38.16 160.04 39.44L158.2 40.14C158.1 39.7 157.98 39.24 157.86 38.8C156.18 39.54 154.16 40.16 152.52 40.44L152.04 38.3ZM156.94 40.3L157.7 39.9C158.6 40.88 159.52 42.16 160.1 43.28L158.26 44.24C157.88 42.96 157.42 41.52 156.94 40.3ZM156.1 40.5C156.74 41.9 157.4 43.84 157.72 45.16L155.58 45.58C155.54 44.22 155.4 42.18 155.22 40.7L156.1 40.5ZM153.7 40.72L154.66 40.84C154.7 43 154.5 45.02 154.12 46.58L151.8 45.68C152.58 44.42 153.26 42.74 153.7 40.72Z" fill="#ED6C00"/>
<path d="M46.7557 22.4429V30.5107H46.7426C39.5025 30.5107 33.6191 35.9418 33.6191 42.6247H24.8787C24.8787 31.4741 34.6627 22.4429 46.7426 22.4429H46.7557Z" fill="#ED6C00"/>
<path d="M24.8769 2.23088V2.24839H24.8654C12.8013 2.24839 3.02817 11.2566 3.00299 22.3872H2.99988V22.4489C2.99988 32.3111 10.6444 40.5115 20.7677 42.2697V33.9609C15.5234 32.3714 11.7403 27.8074 11.7403 22.4489V22.4305H11.7419C11.7419 15.7473 17.6253 10.3165 24.8654 10.3165H24.8785V10.299C30.6957 10.2995 35.6262 13.8034 37.3482 18.6437H46.3622C44.4447 9.29946 35.561 2.23088 24.8769 2.23088Z" fill="#ED6C00"/>
<circle cx="24.8783" cy="21.8783" r="6.87826" fill="#ED6C00"/>
<path d="M45.6708 26.6676C36.715 26.6676 29.455 33.3692 29.455 41.6359C29.455 41.9699 29.4857 42.2965 29.509 42.6247H33.6186C33.6186 35.9416 39.502 30.511 46.7421 30.511H46.7552V26.7181C46.3952 26.6963 46.0367 26.6676 45.6708 26.6676Z" fill="#DBA757"/>
</svg>
